<svg width="16" height="33" viewBox="0 0 16 33" fill="none" xmlns="http://www.w3.org/2000/svg">
<path d="M1.2517e-06 2L1.74723 5.61095C1.63883 5.75066 1.53769 5.89648 1.44392 6.04845C0.862204 6.99123 0.586439 8.13478 0.586439 9.452C0.586439 10.8252 1.10063 12.2856 2.06721 13.8222L2.06718 13.8222L2.07018 13.8269L8.3725 23.604H1.41044H0.910439V24.104V28.28V28.78H1.41044H4.94244V31.376V31.876H5.44244H9.25844H9.75844V31.376V28.78H10.9504H11.1083L11.2376 28.6893C11.682 28.3776 12.0685 28.0216 12.3982 27.6229L15 33L15.9002 32.5644L13.0426 26.6589C13.5933 25.6243 13.8624 24.3821 13.8624 22.952C13.8624 21.4948 13.2184 19.7911 12.0233 17.8645L12.0234 17.8644L12.0209 17.8606L6.53786 9.196H12.8584H13.3584V8.696V4.376V3.876H12.8584H9.79444V1.28V0.779999H9.29444H5.47844H4.97844V1.28V3.876H4.21844H4.11653L4.02276 3.91588C3.44104 4.16328 2.92759 4.47196 2.48664 4.84317L0.90016 1.56444L1.2517e-06 2Z" fill="white" stroke="black"/>
</svg>
