<?xml version="1.0" standalone="no"?>
<!DOCTYPE svg PUBLIC "-//W3C//DTD SVG 20010904//EN"
 "http://www.w3.org/TR/2001/REC-SVG-20010904/DTD/svg10.dtd">
<svg version="1.0" xmlns="http://www.w3.org/2000/svg"
 width="114.000000pt" height="169.000000pt" viewBox="0 0 114.000000 169.000000"
 preserveAspectRatio="xMidYMid meet">

<g transform="translate(0.000000,169.000000) scale(0.100000,-0.100000)"
fill="#000000" stroke="none">
<path d="M410 1481 c0 -67 -1 -69 -27 -74 -46 -9 -107 -62 -139 -119 -27 -49
-29 -61 -29 -153 0 -121 -2 -116 191 -416 74 -115 134 -211 134 -214 0 -3 -72
-5 -160 -5 l-160 0 0 -145 0 -145 95 0 95 0 0 -70 0 -70 130 0 130 0 0 70 c0
68 1 70 25 70 34 0 100 62 133 124 24 46 27 62 27 156 0 97 -2 110 -31 171
-17 36 -86 152 -153 258 -66 105 -121 194 -121 196 0 3 65 5 145 5 l145 0 0
145 0 145 -80 0 -80 0 0 70 0 70 -135 0 -135 0 0 -69z m220 -41 l0 -70 85 0
86 0 -3 -102 -3 -103 -162 -5 -162 -5 146 -230 c80 -126 157 -255 170 -285 53
-114 38 -261 -34 -340 -31 -35 -41 -40 -79 -40 l-44 0 0 -75 0 -75 -90 0 -90
0 0 75 0 75 -95 0 -95 0 0 95 0 95 181 0 c165 0 181 2 175 17 -4 9 -79 128
-167 265 -89 137 -170 274 -180 303 -32 90 -23 184 23 251 29 42 94 84 130 84
28 0 28 0 28 70 l0 70 90 0 90 0 0 -70z"/>
</g>
</svg>
