<svg width="190" height="75" viewBox="0 0 276 75" fill="none" xmlns="http://www.w3.org/2000/svg">
<path d="M107.15 39L109.8 28.05L111.95 20H118.2L120.45 55H113.9L112.95 35.9H112.7L109.1 50H105L101.4 35.9H101.15L100.2 55H93.65L95.9 20H102.15L104.3 28.05L106.95 39H107.15Z" fill="white"/>
<path d="M139.428 55H128.528C125.195 51.9 123.528 47.6667 123.528 42.3C123.528 39.6 123.895 37.25 124.628 35.25C125.395 33.25 126.595 31.3167 128.228 29.45H139.928C141.661 31.45 142.845 33.4 143.478 35.3C144.111 37.1667 144.428 39.5 144.428 42.3C144.428 47.6667 142.761 51.9 139.428 55ZM132.078 49.75H135.878C137.078 47.4167 137.678 44.7667 137.678 41.8C137.678 38.8333 137.061 36.4667 135.828 34.7H132.078C130.878 36.4 130.278 38.8167 130.278 41.95C130.278 45.05 130.878 47.65 132.078 49.75Z" fill="white"/>
<path d="M159.107 29.45H164.407C165.874 31.3167 166.874 33.1833 167.407 35.05C167.941 36.9167 168.207 39.25 168.207 42.05V55H161.557V41.55C161.557 38.3833 161.124 36.1 160.257 34.7H154.657V55H148.007V29.45H153.207L154.107 31.25C154.841 30.5833 155.524 30.1167 156.157 29.85C156.824 29.5833 157.807 29.45 159.107 29.45Z" fill="white"/>
<path d="M183.874 34.7H180.124C179.624 35.3 179.207 36.1333 178.874 37.2C178.574 38.2667 178.424 39.3 178.424 40.3H185.574C185.64 39.3 185.507 38.2667 185.174 37.2C184.84 36.1 184.407 35.2667 183.874 34.7ZM190.674 49.75V55H177.974C175.64 53.4333 173.991 51.5 173.024 49.2C172.091 46.8667 171.624 44.5167 171.624 42.15C171.624 36.6833 173.69 32.45 177.824 29.45H185.924C188.157 31.0833 189.674 32.8167 190.474 34.65C191.274 36.4833 191.674 38.3333 191.674 40.2C191.674 42.0667 191.524 43.6667 191.224 45H178.774C178.874 45.7667 179.157 46.65 179.624 47.65C180.124 48.6167 180.657 49.3167 181.224 49.75H190.674Z" fill="white"/>
<path d="M194.635 40.95V29.45H201.285V41C201.285 43.9 201.868 46.3167 203.035 48.25H205.985C207.085 46.35 207.635 43.9333 207.635 41V29.45H214.285V40.6C214.285 43.1 213.951 45.3 213.285 47.2C212.651 49.1 211.601 51.25 210.135 53.65L206.785 59.1C206.185 60.1333 205.551 60.9 204.885 61.4C204.218 61.9 203.351 62.2667 202.285 62.5H194.385V57.25H199.785C200.485 57.05 201.068 56.7 201.535 56.2C202.001 55.7 202.485 54.9833 202.985 54.05L203.285 53.5H199.835C198.235 52.2 196.968 50.45 196.035 48.25C195.101 46.0167 194.635 43.5833 194.635 40.95Z" fill="white"/>
<path d="M226.675 55V20H244.625V26H233.525V34.35H243.425V40.15H233.525V49.2H244.825V55H226.675Z" fill="white"/>
<path d="M248.297 47.6H255.497V55H248.297V47.6Z" fill="white"/>
<path d="M263.079 20H275.079V26H265.479L265.329 26.3L273.329 40.9C274.962 43.8333 275.779 46.0667 275.779 47.6C275.779 50.9667 274.662 53.4333 272.429 55H259.179V49.2H269.529L269.679 48.9L260.679 32.75C259.379 30.4167 258.729 28.5167 258.729 27.05C258.729 23.5833 260.179 21.2333 263.079 20Z" fill="white"/>
<path d="M76 37.5C76 58.2107 58.9868 75 38 75C17.0132 75 0 58.2107 0 37.5C0 16.7893 17.0132 0 38 0C58.9868 0 76 16.7893 76 37.5Z" fill="#007327"/>
<path d="M43.05 20.8H48V26.8H38.3L38.15 27.1L46.25 39.9C47.8833 42.5333 48.7 44.7667 48.7 46.6C48.7 49.9667 47.5833 52.4333 45.35 54H43V58.3H37.7V54H32.1V48.2H42.7L42.85 47.9L33.6 33.55C32.3 31.4833 31.65 29.5833 31.65 27.85C31.65 24.3833 33.1 22.0333 36 20.8H37.75V16.5H43.05V20.8Z" fill="white"/>
</svg>
