<?xml version="1.0" standalone="no"?>
<!DOCTYPE svg PUBLIC "-//W3C//DTD SVG 20010904//EN"
 "http://www.w3.org/TR/2001/REC-SVG-20010904/DTD/svg10.dtd">
<svg version="1.0" xmlns="http://www.w3.org/2000/svg"
 width="269.000000pt" height="68.000000pt" viewBox="0 0 269.000000 68.000000"
 preserveAspectRatio="xMidYMid meet">

<g transform="translate(0.000000,68.000000) scale(0.100000,-0.100000)"
fill="#000000" stroke="none">
<path d="M448 637 c-147 -42 -240 -197 -209 -349 31 -146 174 -251 320 -234
108 13 193 73 242 172 32 66 34 177 2 245 -60 132 -216 205 -355 166z m210
-31 c56 -28 114 -89 138 -143 11 -24 17 -65 17 -113 1 -90 -27 -154 -92 -213
-59 -53 -104 -70 -191 -70 -90 -1 -154 27 -213 92 -53 59 -70 104 -70 191 -1
62 4 84 25 126 75 145 244 202 386 130z"/>
<path d="M520 480 c0 -5 -11 -20 -25 -34 -14 -14 -25 -31 -25 -39 0 -8 18 -42
40 -76 22 -34 40 -64 40 -66 0 -3 -16 -5 -35 -5 -28 0 -35 -4 -35 -20 0 -13 7
-20 20 -20 13 0 20 -7 20 -20 0 -13 7 -20 20 -20 13 0 20 7 20 20 0 11 6 20
14 20 15 0 26 21 26 49 0 9 -16 43 -35 75 -19 32 -35 60 -35 62 0 1 15 4 32 6
39 4 52 36 19 45 -12 3 -21 12 -21 19 0 8 -9 14 -20 14 -11 0 -20 -4 -20 -10z"/>
<path d="M916 383 c-4 -43 -8 -99 -11 -125 -4 -45 -3 -48 20 -48 23 0 24 4 27
68 l3 67 15 -48 c18 -60 40 -59 55 3 l11 45 7 -34 c4 -18 7 -49 7 -67 0 -28 4
-34 21 -34 21 0 22 3 16 83 -4 45 -7 101 -7 125 0 37 -3 42 -23 42 -21 0 -25
-8 -37 -57 -18 -84 -22 -85 -40 -13 -13 52 -20 66 -37 68 -20 3 -22 -3 -27
-75z"/>
<path d="M1860 335 l0 -125 65 0 c58 0 65 2 65 20 0 17 -7 20 -40 20 -39 0
-40 1 -40 35 0 33 2 35 35 35 28 0 35 4 35 20 0 16 -7 20 -35 20 -32 0 -35 2
-35 30 0 28 2 30 40 30 33 0 40 3 40 20 0 18 -7 20 -65 20 l-65 0 0 -125z"/>
<path d="M2098 434 c-11 -23 -7 -35 31 -105 l42 -79 -35 0 c-29 0 -36 -4 -36
-20 0 -17 7 -20 43 -20 78 0 87 38 32 136 -19 34 -35 65 -35 68 0 3 16 6 35 6
28 0 35 4 35 20 0 17 -7 20 -50 20 -45 0 -52 -3 -62 -26z"/>
<path d="M1134 365 c-12 -18 -15 -39 -12 -75 6 -63 21 -80 69 -80 49 0 69 27
69 93 0 71 -12 87 -65 87 -37 0 -48 -5 -61 -25z m80 -21 c16 -42 3 -94 -24
-94 -22 0 -34 44 -24 84 7 29 38 36 48 10z"/>
<path d="M1290 299 c0 -88 0 -89 25 -89 24 0 25 2 25 76 0 72 1 75 23 72 20
-3 22 -9 25 -75 3 -70 4 -73 27 -73 23 0 25 3 25 53 0 28 -5 69 -10 89 l-11
38 -64 -1 -65 -1 0 -89z"/>
<path d="M1484 365 c-21 -31 -20 -99 1 -131 13 -20 24 -24 65 -24 43 0 50 3
50 20 0 17 -7 20 -39 20 -25 0 -41 5 -45 15 -4 12 4 15 39 15 47 0 50 4 45 55
-6 56 -85 77 -116 30z m75 -24 c12 -22 5 -31 -26 -31 -24 0 -27 7 -17 34 8 22
31 20 43 -3z"/>
<path d="M1630 340 c0 -61 23 -120 46 -120 13 0 14 -3 4 -15 -7 -8 -21 -15
-31 -15 -11 0 -19 -7 -19 -16 0 -11 9 -14 37 -12 32 3 40 9 67 53 23 37 31 64
34 112 4 62 4 63 -22 63 -25 0 -26 -2 -26 -65 0 -57 -2 -65 -19 -65 -22 0 -31
26 -31 88 0 35 -3 42 -20 42 -17 0 -20 -7 -20 -50z"/>
<path d="M2020 235 c0 -18 5 -25 20 -25 15 0 20 7 20 25 0 18 -5 25 -20 25
-15 0 -20 -7 -20 -25z"/>
</g>
</svg>
