<?xml version="1.0" standalone="no"?>
<!DOCTYPE svg PUBLIC "-//W3C//DTD SVG 20010904//EN"
 "http://www.w3.org/TR/2001/REC-SVG-20010904/DTD/svg10.dtd">
<svg version="1.0" xmlns="http://www.w3.org/2000/svg"
 width="139.000000pt" height="121.000000pt" viewBox="0 0 139.000000 121.000000"
 preserveAspectRatio="xMidYMid meet">

<g transform="translate(0.000000,121.000000) scale(0.100000,-0.100000)"
fill="#000000" stroke="none">
<path d="M650 770 l0 -109 -127 -3 c-112 -3 -128 -5 -131 -20 -3 -16 8 -18
127 -18 l130 0 3 -127 c3 -106 6 -128 18 -128 12 0 15 22 18 128 l3 127 119 0
c113 0 120 1 120 20 0 19 -7 20 -120 20 l-120 0 0 110 c0 103 -1 110 -20 110
-19 0 -20 -7 -20 -110z"/>
</g>
</svg>
