<?xml version="1.0" standalone="no"?>
<!DOCTYPE svg PUBLIC "-//W3C//DTD SVG 20010904//EN"
 "http://www.w3.org/TR/2001/REC-SVG-20010904/DTD/svg10.dtd">
<svg version="1.0" xmlns="http://www.w3.org/2000/svg"
 width="133.000000pt" height="117.000000pt" viewBox="0 0 133.000000 117.000000"
 preserveAspectRatio="xMidYMid meet">

<g transform="translate(0.000000,117.000000) scale(0.100000,-0.100000)"
fill="#000000" stroke="none">
<path d="M526 1075 c-181 -50 -317 -184 -370 -364 -20 -68 -21 -198 -1 -270
45 -171 175 -308 344 -362 89 -29 221 -29 312 0 308 97 451 455 297 744 -107
199 -365 311 -582 252z m255 -31 c170 -50 311 -193 348 -355 13 -57 13 -172 0
-229 -31 -135 -132 -261 -260 -324 -323 -158 -699 75 -699 433 0 149 47 258
156 360 95 89 193 129 325 130 42 1 99 -6 130 -15z"/>
<path d="M400 590 c0 -19 7 -20 265 -20 258 0 265 1 265 20 0 19 -7 20 -265
20 -258 0 -265 -1 -265 -20z"/>
</g>
</svg>
