<?xml version="1.0" standalone="no"?>
<!DOCTYPE svg PUBLIC "-//W3C//DTD SVG 20010904//EN"
 "http://www.w3.org/TR/2001/REC-SVG-20010904/DTD/svg10.dtd">
<svg version="1.0" xmlns="http://www.w3.org/2000/svg"
 width="104.000000pt" height="100.000000pt" viewBox="0 0 104.000000 100.000000"
 preserveAspectRatio="xMidYMid meet">

<g transform="translate(0.000000,100.000000) scale(0.100000,-0.100000)"
fill="#000000" stroke="none">
<path d="M140 885 c-15 -18 -34 5 198 -241 84 -89 152 -165 151 -170 0 -5 -88
-88 -195 -184 -107 -96 -194 -178 -194 -181 0 -4 6 -11 13 -17 10 -9 58 29
212 169 l199 181 71 -74 c39 -40 114 -120 167 -177 67 -71 102 -102 113 -98 8
4 15 10 15 15 0 5 -75 89 -166 187 l-167 177 24 22 c13 13 95 87 182 166 140
127 156 145 143 158 -13 14 -25 7 -102 -64 -236 -214 -269 -244 -275 -244 -3
0 -73 71 -154 158 -242 256 -220 236 -235 217z"/>
</g>
</svg>
